/* XPM */
#ifdef __WXMSW__
static char * appicon_xpm[] = {
#else
static const char * appicon_xpm[] = {
#endif

/* columns rows colors chars-per-pixel */
"32 32 192 2 ",
"   c #37140B",
".  c #361917",
"X  c #24211C",
"o  c #0A0F24",
"O  c #13192E",
"+  c #030D31",
"@  c #12113F",
"#  c #272420",
"$  c #3A3833",
"%  c #46170B",
"&  c #531A10",
"*  c #4D211C",
"=  c #5D2317",
"-  c #6D2818",
";  c #7A2617",
":  c #762619",
">  c #7B241A",
",  c #75301E",
"<  c #4F2C23",
"1  c #592C27",
"2  c #4D3135",
"3  c #563B36",
"4  c #672C2B",
"5  c #732D25",
"6  c #783029",
"7  c #444139",
"8  c #5F483B",
"9  c #08184B",
"0  c #101847",
"q  c #061659",
"w  c #031A5D",
"e  c #0B1D5B",
"r  c #101950",
"t  c #0A205F",
"y  c #162855",
"u  c #12225D",
"i  c #34394B",
"p  c #353C52",
"a  c #041763",
"s  c #062462",
"d  c #0D2265",
"f  c #142765",
"g  c #12296B",
"h  c #1A2E76",
"j  c #4D4A42",
"k  c #535046",
"l  c #56524C",
"z  c #5A574B",
"x  c #59564C",
"c  c #434B5B",
"v  c #48505D",
"b  c #5D5751",
"n  c #5D5B53",
"m  c #665E57",
"M  c #65625A",
"N  c #666459",
"B  c #6B675E",
"V  c #72665B",
"C  c #4D5261",
"Z  c #575B60",
"A  c #5C616C",
"S  c #6D6A62",
"D  c #726D65",
"F  c #747267",
"G  c #76736A",
"H  c #79776B",
"J  c #7B796E",
"K  c #616572",
"L  c #7E7873",
"P  c #862F20",
"I  c #8A3F26",
"U  c #993C2B",
"Y  c #983F38",
"T  c #AC3D34",
"R  c #BC462A",
"E  c #B74633",
"W  c #BE4430",
"Q  c #B95033",
"!  c #C64524",
"~  c #CA4325",
"^  c #C3442C",
"/  c #CB432A",
"(  c #CA4B2C",
")  c #D04427",
"_  c #D2462B",
"`  c #D1492E",
"'  c #C14330",
"]  c #D44B34",
"[  c #D64A38",
"{  c #CB523B",
"}  c #D65236",
"|  c #DB553C",
" . c #E15338",
".. c #817D74",
"X. c #917E76",
"o. c #CC5546",
"O. c #D75844",
"+. c #E45942",
"@. c #DF6243",
"#. c #D16453",
"$. c #858277",
"%. c #868379",
"&. c #8B867C",
"*. c #89887C",
"=. c #91847B",
"-. c #113089",
";. c #042A95",
":. c #092897",
">. c #032B99",
",. c #0A339E",
"<. c #012CA4",
"1. c #022CAA",
"2. c #0533AB",
"3. c #0634AA",
"4. c #0A35AC",
"5. c #1135A4",
"6. c #193DA8",
"7. c #0735B0",
"8. c #0A35B4",
"9. c #0D3AB3",
"0. c #0E3BB8",
"q. c #113CB2",
"w. c #123DBA",
"e. c #23409B",
"r. c #1541B6",
"t. c #1542BC",
"y. c #1A45BF",
"u. c #2240A2",
"i. c #2348B2",
"p. c #1543C1",
"a. c #1947C4",
"s. c #1B4BC4",
"d. c #1B4DCA",
"f. c #224EC7",
"g. c #8D8582",
"h. c #8D8A83",
"j. c #908384",
"k. c #918D83",
"l. c #979385",
"z. c #969489",
"x. c #9A998D",
"c. c #9B9797",
"v. c #A49E95",
"b. c #A7A399",
"n. c #AEAAA1",
"m. c #B1AEA2",
"M. c #B3AFAA",
"N. c #B3B4A6",
"B. c #B3B4AC",
"V. c #BCB8AE",
"C. c #BCB3B2",
"Z. c #C1B8AF",
"A. c #C2BDB5",
"S. c #C5BDBA",
"D. c #C8C4B9",
"F. c #D0CCBE",
"G. c #CECCC1",
"H. c #D3CDC2",
"J. c #D7D4C7",
"K. c #D6D2CA",
"L. c #DBD6CC",
"P. c #DCDACD",
"I. c #DFDCD1",
"U. c #E1DDCD",
"Y. c #E2DDD2",
"T. c #E6DED9",
"R. c #E9DFDB",
"E. c #E7E5CD",
"W. c #E6E2D4",
"Q. c #EAE4D5",
"!. c #ECE8D6",
"~. c #E6E2D8",
"^. c #EBE4DB",
"/. c #EDEADD",
"(. c #F3EBD7",
"). c #F2E4DB",
"_. c #F4E8D9",
"`. c #F2EBDD",
"'. c #ECE6E1",
"]. c #EEECE3",
"[. c #F4E7E3",
"{. c #F3ECE2",
"}. c #F9EDE4",
"|. c #F4EDE8",
" X c #FAEEE9",
".X c #F5F1E4",
"XX c #FCF4E6",
"oX c #F7F4E9",
"OX c #FCF5EA",
"+X c #FEFCEC",
"@X c #FDF4F1",
"#X c #FFFDF1",
/* pixels */
"% - ; > P ; ; ; > > ; > : & o q a a a a a a a a a a a a w a q + ",
": E R R T ! T ' ^ R ^ R E 6 @ -.>.>.>.>.>.>.>.>.>.;.:.;.>.>.:.q ",
"> W ~ ~ ! ! ) ~ ( / ~ ~ ^ 6 0 ,.3.1.1.1.<.<.<.<.<.<.<.<.<.1.;.9 ",
"> W ~ ~ ' / ) ! ^ ^ / / ( 6 0 ,.4.3.2.2.1.<.<.<.<.<.<.<.<.>.g o ",
": R ~ / / ~ ~ / ) / _ _ { 5 r 5.9.4.4.4.2.2.2.<.<.1.<.<.;.g i l ",
"  U ^ / ) ! / / _ ` ] ] o.6 e q.w.9.9.7.7.2.2.2.<.1.1.;.s i n.j.",
"2 < : T ' ! _ [ ] ] ] [ O.4 e r.t.w.w.0.0.8.8.7.2.3.:.d i N.Y.j.",
"g.C.m * P R / ] [ } }  .O.4 d y.p.t.t.w.9.9.9.4.4.,.e p C.W.U.X.",
"&.R.Y.v.3 = Y { } | O. .O.1 g a.a.y.y.t.t.r.9.9.5.e c Z.R.E.U.=.",
"g.T.R.'.K.X.1 , ( +.+.@.#.2 h f.d.s.s.s.p.t.t.6.d c D.).R.W.Y.j.",
"&.Y.).R.].].D.V < E o.Q I . t u.f.d.d.d.a.a.6.f C F.(.).^.W.Y.g.",
"g.T.).[.[.|.@X|.M.7 . 8 ..c.L p y e.i.f.f.r.f Z L.XX(._.Q.U.U.&.",
"g.T.^.).[. XOX@X|.S $.'.#X#XoXI.c.v y -.e.u K W.OXXX}.{.!.E.U.=.",
"j.T.^./.{.XXOX@XS.l W.#X#X#X+X+X#X].B.K O A /.OXOXOX|.`._.Q.Y.g.",
"j.T./.{..XOX@XoXG x.#X+X+X+X+X+X+X#X#X.XD v.+XXXXXOXXX}._.).T.g.",
"g.R.[.}. X@X#XS.x ~.#X+XoX+X+X#X+X+X+X#Xl.k.#XOXXXOXXXXX`.).Y.&.",
"g.W.[.|.@X#XoXF x.#X#X+X+X+X#X+X#X+X+X#Xb...OXOXXXOXOXXX`.`.~.&.",
"*.T.[.}.|.#XC.l W.+X+X+X+X+X+X+X+X+X+X#XA.B [.OX+XOXXX}.`.).T.&.",
"g.T.'.}.|.[.S x.+X+X+X+X+X+X+X+X+X+X+X#XI.b ^.OXXXXXXX}._.!.Y.&.",
"g.T.'.[..XC.l I.+X+X+X+X+X+X+X+X+X+X+X#X/.b P.OXXXXXXX`.!.Q.Y.&.",
"=.T.'.'.~.B z.oX+X+X+X+X+X+X+X+X+X+X+X+XW.$ L W.OXXX{.`.).Q.U.=.",
"h.^.T.S.H X z.W.XX+X+X+X+X+X+X+X+X+X+X/.J N S x l.L.{./.Q.Y.U.=.",
"L c.M j S %.z z =.J.XX+X+X+X+X+X+X+X/.H H ].oXV.B k h.H.Y.R.Y.&.",
"# l h.S.I.^.P.N.H k F V..X+X+X+X+X/.H F /.#XoX+X/.N.M 8 =.F.Y.g.",
"S G.I.I.I.W.!.]./.F.h.x n x.P.+X].G F /.+XoX.X.X.X`.W.n.N j %.G ",
"%.P.U.U.U.I.W.W././.].I.m.S k H N F !.oX.X.X{.`././.Q.W.P.n.n # ",
"%.P.P.U.U.U.E.W.W.!.!.]..X^.F.N 7 W.oX.X`./.`.`.!.Q.W.W.W.~.L.D ",
"%.P.U.U.P.U.U.I.I.E.W.~.^./.].x.F ]..X(./.(.!.~.Q.W.W.E.W.~.I.h.",
"%.P.U.U.U.U.U.U.U.E.U.E.W.!.].*....X/.!.Q.Q.Q.~.W.W.W.E.W.W.I.*.",
"%.P.I.U.U.U.I.I.I.P.U.I.I.W.~.J *.].!.!.Q.T.W.W.W.W.W.W.W.~.I.*.",
"$.K.P.P.P.P.P.P.P.J.P.P.P.P.P.N k.~.I.I.Y.I.Y.Y.W.I.I.I.I.I.I.%.",
"j $.$.$.$.$.$.%.%.%.%.%.%.*...$ n *.*.*.*.*.*.*.*.*.*.*.*.*.%.j "
};
